<svg xmlns="http://www.w3.org/2000/svg" width="300" height="300" viewBox="0 0 300 300">
 <style>
  .petal { stroke: #e8e2d9; stroke-width: 1.2; fill: none; stroke-linecap: round; }
  .center { stroke: #e8e2d9; stroke-width: 1.2; fill: none; }
 </style>
 <g transform="translate(60, 60) rotate(12)">
  <path class="center" d="M-4,-1 C-6,3 2,5 4,1 C5,-2 -1,-5 -4,-1" />
  <path class="petal" d="M-1,-4 C-3,-15 5,-14 1,-4 M4,-1 C15,-3 14,5 4,1 M1,4 C3,15 -5,14 -1,4 M-4,1 C-15,3 -14,-5 -4,-1 M2,-3 C8,-12 14,-6 2,-3 M3,3 C12,8 6,14 3,3 M-2,3 C-8,12 -14,6 -2,3 M-3,-3 C-12,-8 -6,-14 -3,-3" />
 </g>
 <g transform="translate(230, 90) rotate(-10) scale(1.1)">
  <circle class="center" cx="0" cy="0" r="5" />
  <path class="petal" d="M0,-5 C-4,-14 4,-14 0,-5 M5,0 C14,-4 14,4 5,0 M0,5 C4,14 -4,14 0,5 M-5,0 C-14,4 -14,-4 -5,0 M3,-3 C9,-11 11,-6 3,-3 M3,3 C11,9 6,11 3,3 M-3,3 C-9,11 -11,6 -3,3 M-3,-3 C-11,-9 -6,-11 -3,-3" />
 </g>
 <g transform="translate(150, 240) rotate(35) scale(0.8)">
  <path class="center" d="M-3,-1 C-4,2 2,3 3,1 C4,-2 -1,-4 -3,-1" />
  <path class="petal" d="M0,-4 C-2,-10 2,-10 0,-4 M4,0 C10,-2 10,2 4,0 M0,4 C2,10 -2,10 0,4 M-4,0 C-10,2 -10,-2 -4,0" />
 </g>
 <circle fill="#e8e2d9" cx="110" cy="130" r="1" />
 <circle fill="#e8e2d9" cx="250" cy="200" r="1" />
 <circle fill="#e8e2d9" cx="50" cy="240" r="1" />
</svg>
